#!OML:ASF X:\für Bonn\!DataBase\2005_08_11_Bastian_Final\c3d\Bastian.ASF
:FULLY-SPECIFIED
:DEGREES
96
root -1.90458 16.0278 -27.5081 115.871 -10.9086 -184.326
lowerback 45.219 12.7179 12.0573
upperback 27.189 8.64392 0.0776202
thorax 12.2619 0.808102 -9.15832
lowerneck 4.20509 -1.16261 -14.2008
upperneck 12.4555 -4.85516 20.5252
head 3.64649 -2.78082 8.84815
rclavicle -1.59028e-014 9.70069e-014
rhumerus -0.726055 22.3697 -79.7224
rradius 119.879
rwrist 17.5704
rhand -19.465 3.75914
rfingers 7.12502
rthumb 6.85624 -26.1098
lclavicle -1.59028e-014 9.70069e-014
lhumerus 19.4604 -39.8975 76.9557
lradius 107.974
lwrist 47.0877
lhand -12.1678 -9.68765
lfingers 7.12502
lthumb 13.8953 19.8281
rfemur 41.2448 -1.72932 18.0982
rtibia 39.6389
rfoot -188.643 -168.971
rtoes 9.19824
lfemur -67.4544 2.60914 -8.54037
ltibia 45.5453
lfoot -5.98587 -0.251566
ltoes -33.7697
97
root -1.96624 15.9279 -27.6836 115.288 -10.7908 -184.253
lowerback 44.9743 12.4696 12.1458
upperback 27.2975 8.30206 -0.0359722
thorax 12.4357 0.645817 -9.26355
lowerneck 4.24189 -0.938875 -13.8817
upperneck 12.8016 -4.55527 20.0064
head 3.67341 -2.63837 8.62234
rclavicle 6.99722e-014 -2.70347e-014
rhumerus -2.0602 22.6087 -79.377
rradius 119.903
rwrist 17.4532
rhand -19.4065 3.75652
rfingers 7.12502
rthumb 6.91275 -26.1106
lclavicle 6.99722e-014 -2.70347e-014
lhumerus 19.1674 -39.93 76.8435
lradius 107.947
lwrist 47.0333
lhand -11.4597 -9.40793
lfingers 7.12502
lthumb 14.5776 20.0598
rfemur 41.9265 -1.67601 18.1328
rtibia 40.6422
rfoot -189.642 -169.083
rtoes 9.96551
lfemur -68.2803 3.3576 -9.58008
ltibia 49.283
lfoot -2.90216 -0.634134
ltoes -35.539
98
root -1.99286 15.8835 -27.7738 114.702 -10.6794 -184.208
lowerback 44.726 12.2317 12.1593
upperback 27.4026 7.94266 -0.14468
thorax 12.5847 0.45869 -9.32453
lowerneck 4.4544 -0.666639 -13.608
upperneck 12.9889 -4.18251 19.5128
head 3.61489 -2.47248 8.41534
rclavicle -2.38542e-014 -7.4743e-014
rhumerus -3.60005 23.0027 -79.0798
rradius 120.025
rwrist 17.0722
rhand -19.2988 3.85945
rfingers 7.12502
rthumb 7.01673 -26.0043
lclavicle -2.38542e-014 -7.4743e-014
lhumerus 18.7474 -39.8665 76.8688
lradius 107.998
lwrist 46.9213
lhand -10.8595 -9.23673
lfingers 7.12502
lthumb 15.1558 20.1883
rfemur 42.4383 -1.50989 18.4834
rtibia 41.4898
rfoot -190.348 -169.491
rtoes 10.3066
lfemur -68.5065 4.07166 -10.5452
ltibia 53.1965
lfoot -1.26812 -0.780129
ltoes -37.2287
99
root -2.01761 15.8433 -27.8518 114.202 -10.583 -184.277
lowerback 44.4467 12.0465 12.0766
upperback 27.5018 7.61564 -0.285537
thorax 12.7244 0.27876 -9.38239
lowerneck 4.83316 -0.395763 -13.4402
upperneck 13.0322 -3.81721 19.0988
head 3.49274 -2.32231 8.25423
rclavicle 7.95139e-015 -2.36951e-013
rhumerus -5.25344 23.4604 -78.8673
rradius 120.156
rwrist 16.4906
rhand -19.1285 4.02275
rfingers 7.12502
rthumb 7.18108 -25.8354
lclavicle 7.95139e-015 -2.36951e-013
lhumerus 18.2109 -39.826 76.9663
lradius 108.161
lwrist 46.7333
lhand -10.4542 -9.08879
lfingers 7.12502
lthumb 15.5462 20.3063
rfemur 42.8546 -1.2113 18.8596
rtibia 42.3499
rfoot -191.059 -169.981
rtoes 10.5394
lfemur -68.6871 4.90135 -11.5534
ltibia 57.3761
lfoot -0.72407 -0.769145
ltoes -36.1153
100
root -2.03985 15.8068 -27.9174 113.905 -10.493 -184.407
lowerback 44.0563 11.8864 11.8978
upperback 27.5684 7.31331 -0.463518
thorax 12.8418 0.117389 -9.43502
lowerneck 5.29587 -0.130881 -13.5033
upperneck 12.9348 -3.47258 18.8789
head 3.32513 -2.1913 8.1994
rclavicle -3.97569e-015 1.27222e-014
rhumerus -6.94841 23.9007 -78.7251
rradius 120.24
rwrist 15.6894
rhand -18.8817 4.32739
rfingers 7.12502
rthumb 7.41937 -25.5225
lclavicle -3.97569e-015 1.27222e-014
lhumerus 17.6252 -39.7696 77.1096
lradius 108.407
lwrist 46.5953
lhand -10.2088 -8.94872
lfingers 7.12502
lthumb 15.7826 20.4279
rfemur 43.1124 -0.862625 19.2563
rtibia 43.0029
rfoot -191.604 -170.494
rtoes 10.5843
lfemur -68.9017 5.73391 -12.5339
ltibia 61.5018
lfoot -0.678039 -0.365078
ltoes -35.8462
101
root -2.05933 15.778 -27.967 113.922 -10.4174 -184.624
lowerback 43.4799 11.7685 11.5771
upperback 27.5728 7.06935 -0.696211
thorax 12.9201 0.00018579 -9.48066
lowerneck 6.05821 0.092203 -13.6825
upperneck 12.3873 -3.14601 18.7264
head 2.98262 -2.08163 8.18214
rclavicle 7.23576e-014 1.59028e-014
rhumerus -8.67399 24.3131 -78.7574
rradius 120.191
rwrist 14.7607
rhand -18.5341 4.6831
rfingers 7.12502
rthumb 7.75489 -25.1547
lclavicle 7.23576e-014 1.59028e-014
lhumerus 17.0277 -39.7474 77.2454
lradius 108.695
lwrist 46.4844
lhand -10.1464 -8.80691
lfingers 7.12502
lthumb 15.8426 20.5649
rfemur 42.9975 -0.504735 19.4696
rtibia 43.674
rfoot -192.113 -170.823
rtoes 10.5847
lfemur -69.239 6.59094 -13.5165
ltibia 65.6134
lfoot -0.709454 0.440694
ltoes -35.6927
102
root -2.07525 15.7579 -28.0023 114.236 -10.3181 -184.874
lowerback 42.7167 11.6641 11.1391
upperback 27.4964 6.86946 -0.961561
thorax 12.939 -0.0777934 -9.49938
lowerneck 7.1687 0.320038 -14.1081
upperneck 11.3182 -2.79402 18.7683
head 2.43133 -1.97574 8.2712
rclavicle 3.26007e-014 -3.02153e-014
rhumerus -10.5299 24.7028 -78.9943
rradius 120.037
rwrist 13.9868
rhand -18.1133 5.0536
rfingers 7.12502
rthumb 8.16101 -24.7688
lclavicle 3.26007e-014 -3.02153e-014
lhumerus 16.315 -39.7107 77.462
lradius 109.013
lwrist 46.3477
lhand -10.2077 -8.63513
lfingers 7.12502
lthumb 15.7836 20.7414
rfemur 42.5372 -0.172264 19.5921
rtibia 44.323
rfoot -192.545 -171.052
rtoes 10.5633
lfemur -69.6502 7.43296 -14.429
ltibia 69.6095
lfoot -1.04079 1.33409
ltoes -35.0643
103
root -2.08581 15.7491 -28.0247 114.695 -10.2213 -185.143
lowerback 41.8585 11.5934 10.6356
upperback 27.4154 6.70706 -1.21911
thorax 12.9812 -0.138309 -9.48013
lowerneck 8.26364 0.499529 -14.5303
upperneck 10.0941 -2.4886 18.8148
head 1.84959 -1.88452 8.35975
rclavicle -3.18055e-015 -9.54166e-015
rhumerus -12.4048 25.0501 -79.27
rradius 119.88
rwrist 13.26
rhand -17.6786 5.3525
rfingers 7.12502
rthumb 8.58049 -24.4531
lclavicle -3.18055e-015 -9.54166e-015
lhumerus 15.6402 -39.6872 77.6954
lradius 109.345
lwrist 46.2898
lhand -10.2815 -8.31163
lfingers 7.12502
lthumb 15.7125 21.0705
rfemur 41.9279 0.192249 19.7436
rtibia 44.9029
rfoot -192.918 -171.299
rtoes 10.3772
lfemur -70.0126 8.2645 -15.2796
ltibia 73.5306
lfoot -1.60225 2.12939
ltoes -33.9698
104
root -2.0923 15.7525 -28.0328 115.257 -10.1604 -185.41
lowerback 40.9581 11.5085 10.1057
upperback 27.3131 6.54353 -1.49295
thorax 13.0146 -0.192968 -9.46006
lowerneck 8.99642 0.624618 -14.7896
upperneck 9.18823 -2.25871 18.7477
head 1.43352 -1.80631 8.38121
rclavicle -2.98177e-014 7.95139e-014
rhumerus -14.4417 25.3741 -79.6884
rradius 119.72
rwrist 12.8684
rhand -17.3673 5.62488
rfingers 7.12502
rthumb 8.88096 -24.1682
lclavicle -2.98177e-014 7.95139e-014
lhumerus 14.9847 -39.686 77.8978
lradius 109.622
lwrist 46.2576
lhand -10.4327 -7.99785
lfingers 7.12502
lthumb 15.567 21.3956
rfemur 41.2076 0.531195 19.8318
rtibia 45.4059
rfoot -193.217 -171.516
rtoes 10.0841
lfemur -70.2767 9.04945 -16.0653
ltibia 77.3789
lfoot -2.31125 2.91207
ltoes -30.6479
105
root -2.09629 15.7619 -28.0351 115.917 -10.0923 -185.675
lowerback 39.9989 11.4388 9.49175
upperback 27.1813 6.40317 -1.71846
thorax 13.0219 -0.247536 -9.33912
lowerneck 9.35668 0.703458 -14.9603
upperneck 8.64555 -2.09202 18.5321
head 1.19516 -1.73725 8.33604
rclavicle 2.50469e-014 -4.29375e-014
rhumerus -16.5235 25.7063 -80.1557
rradius 119.533
rwrist 12.9453
rhand -17.0376 5.68447
rfingers 7.12502
rthumb 9.19909 -24.0949
lclavicle 2.50469e-014 -4.29375e-014
lhumerus 14.3156 -39.6504 78.2186
lradius 109.771
lwrist 46.207
lhand -10.5023 -7.73114
lfingers 7.12502
lthumb 15.4999 21.6676
rfemur 40.3969 0.863281 19.9059
rtibia 45.8485
rfoot -193.461 -171.714
rtoes 9.81093
lfemur -70.4068 9.83908 -16.8222
ltibia 81.1263
lfoot -2.85955 3.6201
ltoes -26.7489
